# xmcd
#
# Track frame offsets:
#	150
#	34497
#	58099
#	76680
#	92261
#	116620
#	132068
#	164850
#	188598
#	217036
#	233377
#	251926
#
# Disc length: 3748 seconds
#
# Revision: 1
# Processed by: cddbd v1.4PL0 Copyright (c) Steve Scherf et al.
# Submitted via: audiograbber 1.81.01
#
DISCID=9e0ea20c
DTITLE=Jerzy Tatarak - Feeling Good
DYEAR=2001
DGENRE=Blues
TTITLE0=That's All
TTITLE1=Exactly Like You
TTITLE2=Almost Like Being In Love
TTITLE3=I Could Write A Book
TTITLE4=For Sentimental Reason
TTITLE5=Pennies From Heaven
TTITLE6=These Foolish Things
TTITLE7=Walking My Baby Back Home
TTITLE8=What A Difference A Day Makes
TTITLE9=Sunday
TTITLE10=You'd Be So Nice To Come Home
TTITLE11=I Close Me Eyes
EXTD=
EXTT0=
EXTT1=
EXTT2=
EXTT3=
EXTT4=
EXTT5=
EXTT6=
EXTT7=
EXTT8=
EXTT9=
EXTT10=
EXTT11=
PLAYORDER=
